<svg xmlns="http://www.w3.org/2000/svg" viewBox="0 0 600 52" width="100%" preserveAspectRatio="xMidYMid meet">
    <path d="M0,16 Q150,8 300,16 Q450,24 600,16" fill="none" stroke="#C8960A" stroke-width=".8" opacity=".35"></path>
    <!-- Kolam diamonds as divider nodes -->
    <path d="M74,16 L80,10 L86,16 L80,22Z" fill="none" stroke="#4A1E6E" stroke-width=".8" opacity=".45"></path>
    <path d="M174,12 L180,6  L186,12 L180,18Z" fill="none" stroke="#C8960A" stroke-width=".8" opacity=".45"></path>
    <path d="M293,16 L300,9  L307,16 L300,23Z" fill="#C8960A" opacity=".40"></path>
    <path d="M414,12 L420,6  L426,12 L420,18Z" fill="none" stroke="#C8960A" stroke-width=".8" opacity=".45"></path>
    <path d="M514,16 L520,10 L526,16 L520,22Z" fill="none" stroke="#4A1E6E" stroke-width=".8" opacity=".45"></path>
    <circle cx="80" cy="16" r="2" fill="#C8960A" opacity=".55"></circle>
    <circle cx="180" cy="12" r="2" fill="#4A1E6E" opacity=".50"></circle>
    <circle cx="300" cy="16" r="2.5" fill="#F8F2E4" opacity=".70"></circle>
    <circle cx="420" cy="12" r="2" fill="#4A1E6E" opacity=".50"></circle>
    <circle cx="520" cy="16" r="2" fill="#C8960A" opacity=".55"></circle>
  </svg>