<svg xmlns="http://www.w3.org/2000/svg" viewBox="0 0 320 320" width="320" height="320">
          <circle cx="160" cy="160" r="138" fill="none" stroke="rgba(74,30,110,.12)" stroke-width="1"></circle>
          <circle cx="160" cy="160" r="104" fill="none" stroke="rgba(200,150,10,.09)" stroke-width=".8"></circle>
          <circle cx="160" cy="160" r="68" fill="none" stroke="rgba(74,30,110,.07)" stroke-width=".6"></circle>
          <!-- 8 temple arch spokes -->
          <g opacity=".14">
            <rect x="154" y="26" width="12" height="28" rx="6" fill="#C8960A" transform="rotate(0   160 160)"></rect>
            <rect x="154" y="26" width="12" height="28" rx="6" fill="#4A1E6E" transform="rotate(45  160 160)"></rect>
            <rect x="154" y="26" width="12" height="28" rx="6" fill="#C8960A" transform="rotate(90  160 160)"></rect>
            <rect x="154" y="26" width="12" height="28" rx="6" fill="#4A1E6E" transform="rotate(135 160 160)"></rect>
            <rect x="154" y="26" width="12" height="28" rx="6" fill="#C8960A" transform="rotate(180 160 160)"></rect>
            <rect x="154" y="26" width="12" height="28" rx="6" fill="#4A1E6E" transform="rotate(225 160 160)"></rect>
            <rect x="154" y="26" width="12" height="28" rx="6" fill="#C8960A" transform="rotate(270 160 160)"></rect>
            <rect x="154" y="26" width="12" height="28" rx="6" fill="#4A1E6E" transform="rotate(315 160 160)"></rect>
          </g>
          <!-- Kolam diamond centre -->
          <path d="M148,160 L160,140 L172,160 L160,180Z" fill="none" stroke="rgba(200,150,10,.22)" stroke-width="1.2"></path>
          <circle cx="160" cy="160" r="8" fill="rgba(200,150,10,.12)"></circle>
        </svg>